<svg width="100%" height="100%" id="svg" viewBox="0 0 1440 600" xmlns="http://www.w3.org/2000/svg" class="transition duration-300 ease-in-out delay-150"><path d="M 0,600 C 0,600 0,200 0,200 C 105,214.57142857142856 210,229.14285714285714 331,213 C 452,196.85714285714286 589,150 727,134 C 865,118.00000000000001 1004,132.85714285714286 1123,149 C 1242,165.14285714285714 1341,182.57142857142856 1440,200 C 1440,200 1440,600 1440,600 Z" stroke="none" stroke-width="0" fill="#ffffffff" class="transition-all duration-300 ease-in-out delay-150 path-0" transform="rotate(-180 720 300)"></path><path d="M 0,600 C 0,600 0,400 0,400 C 101.17857142857142,440.5 202.35714285714283,481 322,467 C 441.64285714285717,453 579.7500000000001,384.5 714,370 C 848.2499999999999,355.5 978.6428571428571,395.00000000000006 1099,409 C 1219.357142857143,422.99999999999994 1329.6785714285716,411.5 1440,400 C 1440,400 1440,600 1440,600 Z" stroke="none" stroke-width="0" fill="#ffffffff" class="transition-all duration-300 ease-in-out delay-150 path-1" transform="rotate(-180 720 300)"></path></svg>