<?xml version="1.0" standalone="no"?>
<!DOCTYPE svg PUBLIC "-//W3C//DTD SVG 20010904//EN"
 "http://www.w3.org/TR/2001/REC-SVG-20010904/DTD/svg10.dtd">
<svg version="1.0" xmlns="http://www.w3.org/2000/svg"
 width="1394.000000pt" height="1394.000000pt" viewBox="0 0 1394.000000 1394.000000"
 preserveAspectRatio="xMidYMid meet">
<metadata>
Created by potrace 1.14, written by Peter Selinger 2001-2017
</metadata>
<g transform="translate(0.000000,1394.000000) scale(0.100000,-0.100000)"
fill="#000000" stroke="none">
<path d="M870 6960 l0 -4370 550 0 550 0 2 2063 3 2062 2035 0 2035 0 3 -2062
2 -2063 1968 0 c2216 0 2369 4 2782 65 1199 177 2019 761 2315 1649 158 472
175 1060 44 1515 -129 449 -384 799 -774 1062 -202 137 -546 280 -812 340 -99
22 -103 24 -103 49 0 24 8 30 98 64 432 167 778 493 979 923 188 403 247 902
162 1372 -168 928 -889 1483 -2149 1651 -322 43 -288 43 -2447 47 l-2063 4 0
-1831 0 -1830 -2040 0 -2040 0 0 1830 0 1830 -550 0 -550 0 0 -4370z m9200
3471 c304 -31 544 -78 740 -146 473 -165 742 -466 826 -922 34 -187 29 -492
-12 -668 -35 -154 -116 -332 -203 -447 -64 -84 -210 -222 -297 -280 -261 -174
-614 -283 -1084 -335 -145 -16 -262 -18 -975 -18 l-810 0 -3 1405 c-1 773 0
1411 3 1418 4 12 148 13 853 9 523 -3 891 -9 962 -16z m-21 -3661 c552 -27
961 -113 1291 -271 203 -98 323 -183 460 -325 174 -181 287 -407 337 -674 26
-136 25 -503 -1 -645 -41 -222 -134 -457 -243 -610 -312 -437 -885 -691 -1702
-755 -80 -6 -502 -10 -1038 -10 l-903 0 0 1643 c0 904 3 1647 7 1650 10 11
1565 8 1792 -3z"/>
</g>
</svg>
